<mxfile host="app.diagrams.net" modified="2024-01-05T10:17:14.097Z" agent="Mozilla/5.0 (Windows NT 10.0; Win64; x64; rv:121.0) Gecko/20100101 Firefox/121.0" etag="ROebiFUj-TzDY8VOkBLy" version="22.1.16" type="github">
  <diagram name="Page-1" id="cARtvkOVPwYc7D1P7XL3">
    <mxGraphModel dx="1068" dy="782" grid="1" gridSize="10" guides="1" tooltips="1" connect="1" arrows="1" fold="1" page="1" pageScale="1" pageWidth="850" pageHeight="1100" math="0" shadow="0">
      <root>
        <mxCell id="0" />
        <mxCell id="1" parent="0" />
        <mxCell id="XNC-20Obqiw8UY84pBG5-1" value="&lt;div&gt;Main functions app&lt;br&gt;&lt;/div&gt;" style="rounded=0;whiteSpace=wrap;html=1;align=right;" vertex="1" parent="1">
          <mxGeometry x="50" y="310" width="160" height="40" as="geometry" />
        </mxCell>
        <mxCell id="XNC-20Obqiw8UY84pBG5-2" value="&lt;font style=&quot;font-size: 29px;&quot;&gt;A&lt;/font&gt;" style="rounded=0;whiteSpace=wrap;html=1;fillColor=#dae8fc;strokeColor=#6c8ebf;" vertex="1" parent="1">
          <mxGeometry x="50" y="310" width="40" height="40" as="geometry" />
        </mxCell>
        <mxCell id="XNC-20Obqiw8UY84pBG5-3" value="Connect&lt;br&gt;Disconnected&lt;br&gt;Message(from cp)" style="rounded=0;whiteSpace=wrap;html=1;" vertex="1" parent="1">
          <mxGeometry x="50" y="350" width="160" height="90" as="geometry" />
        </mxCell>
        <mxCell id="XNC-20Obqiw8UY84pBG5-12" value="&lt;div&gt;User functions app&lt;br&gt;&lt;/div&gt;" style="rounded=0;whiteSpace=wrap;html=1;align=right;" vertex="1" parent="1">
          <mxGeometry x="440" y="530" width="180" height="40" as="geometry" />
        </mxCell>
        <mxCell id="XNC-20Obqiw8UY84pBG5-13" value="&lt;font style=&quot;font-size: 29px;&quot;&gt;B&lt;/font&gt;" style="rounded=0;whiteSpace=wrap;html=1;fillColor=#d5e8d4;strokeColor=#82b366;" vertex="1" parent="1">
          <mxGeometry x="440" y="530" width="40" height="40" as="geometry" />
        </mxCell>
        <mxCell id="XNC-20Obqiw8UY84pBG5-21" style="edgeStyle=orthogonalEdgeStyle;rounded=0;orthogonalLoop=1;jettySize=auto;html=1;entryX=1;entryY=0.25;entryDx=0;entryDy=0;" edge="1" parent="1" source="XNC-20Obqiw8UY84pBG5-14" target="XNC-20Obqiw8UY84pBG5-19">
          <mxGeometry relative="1" as="geometry">
            <mxPoint x="260" y="615" as="targetPoint" />
          </mxGeometry>
        </mxCell>
        <mxCell id="XNC-20Obqiw8UY84pBG5-14" value="Remote Start &lt;br&gt;Remote Stop&lt;br&gt;(messages to cp)" style="rounded=0;whiteSpace=wrap;html=1;" vertex="1" parent="1">
          <mxGeometry x="440" y="570" width="180" height="90" as="geometry" />
        </mxCell>
        <mxCell id="XNC-20Obqiw8UY84pBG5-15" value="&lt;div&gt;COSMOS functions app&lt;br&gt;&lt;/div&gt;" style="rounded=0;whiteSpace=wrap;html=1;align=right;" vertex="1" parent="1">
          <mxGeometry x="440" y="310" width="180" height="40" as="geometry" />
        </mxCell>
        <mxCell id="XNC-20Obqiw8UY84pBG5-16" value="&lt;font style=&quot;font-size: 29px;&quot;&gt;C&lt;/font&gt;" style="rounded=0;whiteSpace=wrap;html=1;fillColor=#ffe6cc;strokeColor=#d79b00;" vertex="1" parent="1">
          <mxGeometry x="440" y="310" width="40" height="40" as="geometry" />
        </mxCell>
        <mxCell id="XNC-20Obqiw8UY84pBG5-17" value="api for database querries" style="rounded=0;whiteSpace=wrap;html=1;" vertex="1" parent="1">
          <mxGeometry x="440" y="350" width="180" height="90" as="geometry" />
        </mxCell>
        <mxCell id="XNC-20Obqiw8UY84pBG5-19" value="Charging Station&lt;br style=&quot;font-size: 14px;&quot;&gt;" style="rounded=1;whiteSpace=wrap;html=1;strokeWidth=2;fontSize=14;fillColor=#fff2cc;strokeColor=#d6b656;" vertex="1" parent="1">
          <mxGeometry x="20" y="600" width="120" height="60" as="geometry" />
        </mxCell>
        <mxCell id="XNC-20Obqiw8UY84pBG5-23" value="remote start transaction" style="rounded=0;whiteSpace=wrap;html=1;" vertex="1" parent="1">
          <mxGeometry x="290" y="570" width="130" height="40" as="geometry" />
        </mxCell>
        <mxCell id="XNC-20Obqiw8UY84pBG5-24" value="" style="endArrow=classic;html=1;rounded=0;entryX=0;entryY=1;entryDx=0;entryDy=0;exitX=0.685;exitY=-0.05;exitDx=0;exitDy=0;exitPerimeter=0;" edge="1" parent="1" source="XNC-20Obqiw8UY84pBG5-23" target="XNC-20Obqiw8UY84pBG5-17">
          <mxGeometry width="50" height="50" relative="1" as="geometry">
            <mxPoint x="260" y="560" as="sourcePoint" />
            <mxPoint x="450" y="460" as="targetPoint" />
          </mxGeometry>
        </mxCell>
        <mxCell id="XNC-20Obqiw8UY84pBG5-25" value="check if available" style="rounded=1;whiteSpace=wrap;html=1;" vertex="1" parent="1">
          <mxGeometry x="360" y="470" width="120" height="30" as="geometry" />
        </mxCell>
        <mxCell id="XNC-20Obqiw8UY84pBG5-26" value="" style="endArrow=classic;html=1;rounded=0;exitX=0.5;exitY=0;exitDx=0;exitDy=0;entryX=0.194;entryY=1.033;entryDx=0;entryDy=0;entryPerimeter=0;" edge="1" parent="1" source="XNC-20Obqiw8UY84pBG5-19" target="XNC-20Obqiw8UY84pBG5-3">
          <mxGeometry width="50" height="50" relative="1" as="geometry">
            <mxPoint x="400" y="510" as="sourcePoint" />
            <mxPoint x="450" y="460" as="targetPoint" />
          </mxGeometry>
        </mxCell>
        <mxCell id="XNC-20Obqiw8UY84pBG5-27" value="start transaction" style="rounded=0;whiteSpace=wrap;html=1;" vertex="1" parent="1">
          <mxGeometry x="20" y="490" width="120" height="30" as="geometry" />
        </mxCell>
        <mxCell id="XNC-20Obqiw8UY84pBG5-28" value="" style="endArrow=classic;html=1;rounded=0;exitX=1.006;exitY=0.344;exitDx=0;exitDy=0;exitPerimeter=0;entryX=-0.011;entryY=0.378;entryDx=0;entryDy=0;entryPerimeter=0;" edge="1" parent="1" source="XNC-20Obqiw8UY84pBG5-3" target="XNC-20Obqiw8UY84pBG5-17">
          <mxGeometry width="50" height="50" relative="1" as="geometry">
            <mxPoint x="400" y="510" as="sourcePoint" />
            <mxPoint x="450" y="460" as="targetPoint" />
          </mxGeometry>
        </mxCell>
        <mxCell id="XNC-20Obqiw8UY84pBG5-29" value="save new transaction" style="rounded=0;whiteSpace=wrap;html=1;" vertex="1" parent="1">
          <mxGeometry x="250" y="310" width="140" height="60" as="geometry" />
        </mxCell>
        <mxCell id="XNC-20Obqiw8UY84pBG5-30" value="DB" style="shape=cylinder3;whiteSpace=wrap;html=1;boundedLbl=1;backgroundOutline=1;size=15;fillColor=#e1d5e7;strokeColor=#9673a6;" vertex="1" parent="1">
          <mxGeometry x="690" y="210" width="60" height="80" as="geometry" />
        </mxCell>
        <mxCell id="XNC-20Obqiw8UY84pBG5-32" value="" style="shape=flexArrow;endArrow=classic;startArrow=classic;html=1;rounded=0;" edge="1" parent="1">
          <mxGeometry width="100" height="100" relative="1" as="geometry">
            <mxPoint x="620" y="360" as="sourcePoint" />
            <mxPoint x="690" y="290" as="targetPoint" />
          </mxGeometry>
        </mxCell>
        <mxCell id="XNC-20Obqiw8UY84pBG5-35" value="" style="shape=flexArrow;endArrow=classic;html=1;rounded=0;" edge="1" parent="1" source="XNC-20Obqiw8UY84pBG5-33">
          <mxGeometry width="50" height="50" relative="1" as="geometry">
            <mxPoint x="780" y="600" as="sourcePoint" />
            <mxPoint x="630" y="600" as="targetPoint" />
          </mxGeometry>
        </mxCell>
        <mxCell id="XNC-20Obqiw8UY84pBG5-36" value="" style="shape=flexArrow;endArrow=classic;html=1;rounded=0;" edge="1" parent="1" target="XNC-20Obqiw8UY84pBG5-33">
          <mxGeometry width="50" height="50" relative="1" as="geometry">
            <mxPoint x="780" y="600" as="sourcePoint" />
            <mxPoint x="630" y="600" as="targetPoint" />
          </mxGeometry>
        </mxCell>
        <mxCell id="XNC-20Obqiw8UY84pBG5-33" value="USER" style="rounded=0;whiteSpace=wrap;html=1;fillColor=#d5e8d4;strokeColor=#82b366;" vertex="1" parent="1">
          <mxGeometry x="710" y="570" width="80" height="60" as="geometry" />
        </mxCell>
        <mxCell id="XNC-20Obqiw8UY84pBG5-37" value="pub&lt;br&gt;sub" style="rounded=0;whiteSpace=wrap;html=1;fillColor=#ffe6cc;strokeColor=#d79b00;" vertex="1" parent="1">
          <mxGeometry x="240" y="585" width="30" height="60" as="geometry" />
        </mxCell>
      </root>
    </mxGraphModel>
  </diagram>
</mxfile>
